<svg xmlns="http://www.w3.org/2000/svg" xmlns:xlink="http://www.w3.org/1999/xlink" width="500" zoomAndPan="magnify" viewBox="0 0 375 374.999991" height="500" preserveAspectRatio="xMidYMid meet" version="1.0"><defs><g/><clipPath id="7fb24f9d90"><path d="M 1.023438 0 L 373.773438 0 L 373.773438 375 L 1.023438 375 Z M 1.023438 0 " clip-rule="nonzero"/></clipPath></defs><g clip-path="url(#7fb24f9d90)"><path fill="#737373" d="M 308.246094 48.601562 C 327.8125 65.820312 343.921875 87.042969 354.914062 110.6875 C 355.398438 111.378906 356.089844 112.761719 356.917969 114.492188 C 357.332031 115.320312 357.746094 116.289062 358.230469 117.324219 C 358.714844 118.363281 359.128906 119.46875 359.546875 120.574219 C 359.960938 121.679688 360.445312 122.789062 360.859375 123.964844 C 361.273438 125.070312 361.757812 126.175781 362.101562 127.28125 C 362.863281 129.425781 363.625 131.429688 364.175781 132.949219 C 363.347656 130.324219 362.585938 127.765625 361.6875 125.277344 C 360.789062 122.789062 359.820312 120.367188 358.921875 118.015625 C 357.953125 115.667969 356.917969 113.316406 355.949219 111.035156 L 355.191406 109.304688 L 354.359375 107.648438 C 353.808594 106.539062 353.253906 105.433594 352.699219 104.328125 C 349.453125 97.898438 345.785156 91.675781 341.640625 85.382812 C 348.070312 94.855469 353.597656 104.949219 358.164062 115.460938 C 357.265625 113.386719 356.296875 111.378906 355.398438 109.304688 C 354.359375 107.300781 353.324219 105.226562 352.285156 103.222656 C 351.316406 101.148438 350.074219 99.144531 348.96875 97.136719 C 347.792969 95.132812 346.6875 93.058594 345.371094 91.121094 C 340.464844 83.101562 334.726562 75.429688 328.503906 68.101562 C 315.988281 53.375 300.710938 40.582031 283.910156 30.421875 C 277.757812 26.824219 272.085938 23.160156 265.3125 19.84375 C 263.652344 19.011719 261.921875 18.113281 260.125 17.351562 C 258.328125 16.59375 256.394531 15.832031 254.386719 15.003906 C 252.382812 14.171875 250.308594 13.550781 248.097656 12.859375 C 245.882812 12.167969 243.53125 11.476562 241.042969 10.921875 C 253.28125 14.726562 265.171875 19.84375 276.441406 26.132812 C 287.851562 32.425781 298.496094 39.960938 308.246094 48.601562 Z M 340.808594 83.933594 C 340.394531 83.308594 339.910156 82.617188 339.425781 81.996094 C 339.910156 82.617188 340.324219 83.242188 340.808594 83.933594 Z M 372.195312 178.441406 C 372.128906 177.199219 371.988281 175.886719 371.921875 174.640625 C 372.058594 175.953125 372.128906 177.335938 372.265625 178.652344 C 372.335938 179.339844 372.40625 179.964844 372.40625 180.65625 C 372.40625 181.277344 372.472656 181.96875 372.472656 182.589844 C 372.542969 185.148438 372.613281 187.707031 372.613281 190.058594 C 372.542969 187.429688 372.472656 184.871094 372.40625 182.316406 C 372.40625 181.691406 372.40625 181 372.335938 180.378906 C 372.265625 179.6875 372.195312 179.066406 372.195312 178.441406 Z M 210.207031 8.15625 C 186.703125 5.253906 162.296875 6.84375 138.722656 13.480469 C 151.511719 9.816406 165.132812 7.398438 178.890625 6.566406 C 192.648438 5.738281 206.476562 6.707031 219.542969 9.265625 C 216.429688 8.78125 213.320312 8.503906 210.207031 8.15625 Z M 276.996094 31.25 C 266.695312 25.304688 255.632812 20.257812 244.015625 16.453125 C 255.492188 20.1875 266.625 25.097656 276.925781 31.113281 C 287.296875 37.125 296.835938 44.109375 305.203125 51.714844 C 296.769531 44.179688 287.296875 37.265625 276.996094 31.25 Z M 24.574219 140.625 C 18.214844 162.058594 15.863281 185.148438 18.144531 208.65625 C 18.007812 207.894531 18.007812 207.066406 17.9375 206.304688 C 17.871094 205.542969 17.800781 204.714844 17.730469 203.953125 C 17.59375 202.363281 17.453125 200.773438 17.386719 199.113281 C 17.316406 197.523438 17.316406 195.867188 17.246094 194.207031 C 17.246094 193.375 17.179688 192.546875 17.179688 191.71875 C 17.179688 190.886719 17.109375 190.058594 17.179688 189.226562 C 17.246094 185.910156 16.902344 182.9375 16.832031 181.347656 C 17.59375 172.703125 18.835938 164.199219 20.980469 154.246094 C 21.257812 152.722656 21.949219 149.40625 22.5 146.363281 C 23.191406 144.566406 23.882812 142.628906 24.574219 140.625 Z M 162.296875 4.910156 C 161.675781 4.976562 161.050781 5.117188 160.429688 5.183594 C 161.949219 4.976562 163.402344 4.703125 164.925781 4.5625 C 164.023438 4.703125 163.125 4.839844 162.296875 4.910156 Z M 75.875 40.445312 C 75.945312 40.375 76.082031 40.308594 76.152344 40.238281 C 76.082031 40.308594 75.945312 40.375 75.875 40.445312 Z M 73.179688 42.519531 C 72.074219 43.417969 70.964844 44.316406 69.792969 45.285156 C 70.898438 44.386719 72.003906 43.417969 73.179688 42.519531 Z M 373.371094 198.007812 C 373.304688 199.460938 373.097656 200.914062 372.957031 202.433594 C 372.820312 203.953125 372.613281 205.542969 372.40625 207.136719 C 372.335938 207.894531 372.265625 208.726562 372.128906 209.554688 C 371.988281 210.382812 371.851562 211.144531 371.714844 211.972656 C 371.4375 213.632812 371.160156 215.292969 370.953125 216.953125 L 370.746094 218.195312 C 370.675781 218.613281 370.605469 219.027344 370.46875 219.441406 C 370.261719 220.269531 370.125 221.101562 369.914062 221.929688 C 369.570312 223.589844 369.222656 225.316406 368.878906 226.976562 C 368.464844 228.636719 368.050781 230.296875 367.632812 232.023438 C 367.21875 233.683594 366.804688 235.34375 366.320312 237.003906 C 365.835938 238.59375 365.285156 240.183594 364.800781 241.773438 C 364.316406 243.363281 363.832031 244.882812 363.277344 246.40625 C 362.726562 247.925781 362.171875 249.378906 361.621094 250.761719 C 361.066406 252.144531 360.582031 253.59375 359.960938 254.839844 C 358.785156 257.464844 357.746094 259.886719 356.640625 262.03125 C 357.332031 259.957031 358.023438 257.8125 358.714844 255.667969 C 358.230469 256.566406 357.472656 258.089844 356.640625 259.957031 C 356.433594 260.441406 356.226562 260.921875 355.949219 261.40625 C 355.671875 261.890625 355.464844 262.445312 355.191406 262.929688 C 354.636719 263.964844 354.082031 265.070312 353.53125 266.246094 C 352.976562 267.351562 352.425781 268.527344 351.800781 269.703125 C 351.179688 270.808594 350.558594 271.917969 349.933594 273.023438 C 348.757812 275.164062 347.652344 277.171875 346.617188 278.761719 C 346.960938 278 347.378906 277.308594 347.792969 276.480469 C 348.207031 275.71875 348.621094 274.890625 349.035156 274.128906 C 349.867188 272.539062 350.832031 270.949219 351.734375 269.289062 C 349.867188 272.539062 349.867188 272.539062 348.070312 275.71875 C 349.589844 272.609375 351.523438 269.152344 353.183594 265.347656 C 353.597656 264.378906 354.082031 263.414062 354.5 262.445312 C 354.707031 261.960938 354.914062 261.476562 355.191406 260.992188 C 355.398438 260.507812 355.605469 259.957031 355.8125 259.472656 C 356.640625 257.464844 357.472656 255.394531 358.300781 253.320312 C 361.410156 244.953125 364.109375 236.035156 365.90625 228.015625 C 366.183594 227.046875 366.320312 226.007812 366.527344 225.042969 C 366.734375 224.074219 366.875 223.105469 367.082031 222.136719 C 367.21875 221.167969 367.425781 220.269531 367.566406 219.371094 C 367.703125 218.472656 367.910156 217.644531 367.980469 216.746094 C 368.394531 213.355469 368.808594 210.382812 369.015625 207.964844 C 369.292969 203.195312 369.222656 200.773438 368.671875 202.019531 C 367.632812 204.578125 366.320312 218.195312 361.757812 234.859375 C 359.40625 243.15625 356.226562 252.28125 352.355469 261.0625 C 351.316406 263.273438 350.351562 265.417969 349.3125 267.628906 C 348.207031 269.773438 347.101562 271.847656 345.996094 273.921875 C 345.71875 274.472656 345.441406 274.957031 345.164062 275.511719 C 344.886719 275.996094 344.542969 276.546875 344.265625 277.03125 C 343.644531 278.070312 343.089844 279.039062 342.46875 280.003906 C 341.914062 280.972656 341.292969 281.941406 340.738281 282.910156 C 340.117188 283.878906 339.496094 284.777344 338.875 285.675781 C 339.355469 284.84375 339.839844 284.085938 340.324219 283.253906 C 340.808594 282.425781 341.222656 281.59375 341.707031 280.765625 C 342.605469 279.105469 343.503906 277.378906 344.472656 275.648438 C 345.371094 273.921875 346.203125 272.125 347.101562 270.328125 C 347.515625 269.425781 348 268.527344 348.414062 267.628906 C 348.828125 266.730469 349.242188 265.832031 349.660156 264.863281 C 350.488281 262.996094 351.25 261.199219 352.078125 259.332031 C 352.839844 257.464844 353.53125 255.53125 354.289062 253.664062 C 354.636719 252.695312 355.050781 251.796875 355.398438 250.828125 C 355.742188 249.863281 356.089844 248.894531 356.363281 247.925781 L 357.332031 245.023438 C 357.679688 244.054688 358.023438 243.085938 358.300781 242.117188 L 360.027344 236.171875 L 360.445312 234.71875 L 360.789062 233.199219 L 361.480469 230.226562 C 362.519531 226.214844 363.140625 222.207031 363.902344 218.195312 C 365.074219 210.175781 365.976562 202.226562 365.976562 194.484375 C 365.835938 196.28125 365.699219 197.941406 365.558594 199.460938 C 365.351562 200.980469 365.144531 202.503906 364.867188 204.09375 C 364.730469 204.921875 364.660156 205.683594 364.523438 206.582031 C 364.382812 207.480469 364.316406 208.378906 364.109375 209.347656 C 363.761719 211.28125 363.417969 213.496094 363.070312 216.054688 C 363.003906 216.882812 362.792969 217.710938 362.65625 218.472656 L 362.171875 220.894531 L 361.203125 225.734375 L 360.027344 230.503906 L 359.40625 232.921875 C 359.199219 233.753906 358.992188 234.511719 358.785156 235.273438 C 356.917969 241.566406 354.914062 247.855469 352.425781 253.941406 C 347.652344 266.179688 342.398438 276.824219 335.277344 286.296875 C 334.65625 287.265625 334.035156 288.234375 333.34375 289.132812 C 332.027344 291.066406 330.921875 292.933594 329.609375 294.871094 C 329.261719 295.421875 328.847656 295.90625 328.503906 296.320312 C 328.15625 296.804688 327.742188 297.21875 327.464844 297.636719 C 326.773438 298.464844 326.152344 299.226562 325.53125 299.917969 C 324.90625 300.609375 324.355469 301.300781 323.871094 301.921875 C 323.316406 302.542969 322.765625 303.167969 322.210938 303.71875 C 321.105469 304.964844 320 306.207031 318.683594 307.730469 C 318.0625 308.488281 317.300781 309.25 316.472656 310.148438 C 315.644531 311.046875 314.8125 312.015625 313.84375 313.054688 C 313.707031 313.054688 313.914062 312.707031 314.328125 312.152344 C 313.777344 312.84375 313.085938 313.535156 312.324219 314.367188 C 311.5625 315.128906 310.734375 315.886719 309.90625 316.71875 C 309.074219 317.546875 308.246094 318.308594 307.414062 319.136719 C 307 319.550781 306.65625 319.898438 306.242188 320.3125 C 305.824219 320.65625 305.480469 321.074219 305.132812 321.417969 C 304.859375 321.417969 304.582031 321.417969 303.890625 321.832031 C 284.878906 338.289062 262.199219 350.941406 237.449219 357.921875 C 235.582031 358.40625 233.785156 358.960938 231.917969 359.445312 C 230.050781 359.859375 228.253906 360.273438 226.386719 360.6875 C 225.488281 360.894531 224.519531 361.101562 223.621094 361.3125 C 222.722656 361.449219 221.753906 361.65625 220.855469 361.792969 C 218.988281 362.140625 217.191406 362.417969 215.324219 362.761719 C 213.734375 362.96875 212.144531 363.175781 210.554688 363.386719 C 208.964844 363.59375 207.375 363.867188 205.714844 364.007812 C 204.054688 364.144531 202.464844 364.285156 200.804688 364.351562 C 199.148438 364.492188 197.488281 364.628906 195.828125 364.628906 C 194.167969 364.699219 192.578125 364.835938 191.195312 364.976562 C 189.8125 365.113281 188.707031 365.320312 187.878906 365.320312 C 185.734375 365.183594 183.523438 365.113281 181.308594 364.976562 C 180.757812 364.976562 180.203125 364.90625 179.648438 364.90625 C 179.097656 364.835938 178.542969 364.769531 177.992188 364.699219 C 176.886719 364.558594 175.777344 364.492188 174.601562 364.351562 C 173.496094 364.214844 172.320312 364.144531 171.144531 364.007812 C 169.972656 363.867188 168.863281 363.660156 167.621094 363.453125 C 166.445312 363.246094 165.269531 363.109375 164.023438 362.902344 C 163.402344 362.832031 162.78125 362.761719 162.160156 362.625 C 161.535156 362.484375 160.914062 362.347656 160.292969 362.277344 C 159.53125 362.210938 158.285156 362.003906 156.835938 361.792969 C 155.453125 361.585938 153.792969 361.378906 152.203125 361.101562 C 150.40625 360.480469 148.46875 359.929688 146.394531 359.304688 C 145.636719 359.167969 144.804688 358.890625 144.042969 358.683594 L 141.761719 357.992188 C 140.242188 357.578125 138.722656 357.09375 137.132812 356.679688 C 135.609375 356.125 134.089844 355.640625 132.636719 355.089844 L 130.355469 354.328125 L 128.144531 353.5 C 122.199219 351.21875 116.390625 348.726562 110.789062 345.753906 L 110.789062 345.824219 C 109.40625 345.132812 107.953125 344.371094 106.503906 343.613281 C 105.050781 342.851562 103.597656 341.953125 102.148438 341.121094 C 99.175781 339.464844 96.269531 337.457031 93.230469 335.523438 C 91.707031 334.554688 90.324219 333.449219 88.804688 332.410156 L 86.589844 330.820312 C 85.832031 330.269531 85.140625 329.785156 84.449219 329.230469 C 81.683594 326.949219 78.777344 324.804688 76.152344 322.386719 C 74.839844 321.210938 73.523438 320.105469 72.210938 318.929688 C 70.964844 317.753906 69.722656 316.578125 68.546875 315.402344 C 66.75 313.746094 65.089844 312.015625 63.5 310.355469 L 60.941406 307.589844 C 60.042969 306.625 59.28125 305.585938 58.382812 304.617188 L 55.894531 301.578125 L 55.273438 300.816406 L 54.648438 300.054688 L 53.476562 298.464844 C 53.820312 299.226562 53.820312 299.503906 53.75 299.710938 C 54.097656 300.054688 54.375 300.46875 54.71875 300.886719 C 55.066406 301.300781 55.410156 301.714844 55.824219 302.128906 C 56.449219 302.820312 57.070312 303.582031 57.691406 304.273438 C 55.339844 301.714844 53.265625 299.433594 51.609375 297.496094 C 50.917969 296.53125 50.226562 295.492188 49.535156 294.457031 C 48.84375 293.347656 48.152344 292.242188 47.460938 291.136719 C 46.769531 290.03125 46.007812 288.855469 45.246094 287.679688 C 44.554688 286.503906 43.796875 285.261719 43.035156 284.015625 C 39.09375 278 35.777344 271.570312 32.59375 265.140625 L 29.277344 257.675781 L 28.308594 255.117188 C 27.6875 253.457031 26.996094 251.726562 26.375 250.070312 C 25.75 248.339844 25.265625 246.613281 24.644531 244.882812 C 24.160156 243.777344 24.300781 244.816406 24.160156 244.953125 C 22.292969 238.867188 20.910156 232.578125 19.667969 226.21875 C 17.316406 214.878906 16.140625 203.195312 16.140625 191.441406 C 16.003906 190.058594 16.003906 188.675781 16.003906 187.292969 C 16.003906 185.910156 15.933594 184.527344 15.933594 183.144531 C 16.070312 182.382812 16.140625 181.484375 16.277344 180.515625 C 16.417969 179.550781 16.554688 178.511719 16.695312 177.335938 L 16.96875 174.019531 C 17.039062 172.910156 17.109375 171.804688 17.316406 170.769531 C 17.59375 168.554688 17.9375 166.414062 18.214844 164.199219 C 18.285156 163.441406 18.421875 162.679688 18.628906 161.851562 C 18.769531 161.019531 18.90625 160.191406 19.113281 159.359375 C 19.253906 158.460938 19.460938 157.5625 19.597656 156.664062 C 19.734375 155.695312 19.945312 154.730469 20.152344 153.761719 C 20.636719 151.757812 21.117188 149.683594 21.601562 147.539062 C 21.808594 146.433594 22.15625 145.328125 22.5 144.21875 C 22.847656 143.113281 23.125 141.9375 23.46875 140.761719 C 26.164062 131.429688 30.105469 121.058594 35.152344 110.964844 C 35.777344 109.375 36.328125 108.128906 36.675781 107.4375 C 37.433594 105.988281 38.265625 104.605469 39.023438 103.222656 C 39.855469 101.839844 40.546875 100.457031 41.445312 99.144531 C 42.273438 97.828125 43.105469 96.515625 43.933594 95.203125 C 44.761719 93.886719 45.59375 92.644531 46.492188 91.398438 C 47.253906 90.292969 48.011719 89.257812 48.703125 88.21875 C 49.464844 87.183594 50.15625 86.074219 50.917969 85.109375 C 52.507812 83.101562 54.027344 81.097656 55.480469 79.164062 C 57.070312 77.296875 58.660156 75.429688 60.113281 73.632812 C 60.457031 73.148438 60.871094 72.730469 61.289062 72.316406 C 61.703125 71.902344 62.046875 71.488281 62.460938 71.074219 C 63.222656 70.242188 63.984375 69.414062 64.746094 68.585938 C 66.195312 66.925781 67.785156 65.472656 69.238281 64.019531 C 69.929688 63.328125 70.691406 62.636719 71.382812 61.945312 C 71.726562 61.601562 72.074219 61.253906 72.417969 60.910156 C 72.765625 60.5625 73.109375 60.289062 73.457031 60.011719 C 76.222656 57.589844 78.570312 55.308594 80.714844 53.652344 C 83.203125 51.578125 82.996094 51.4375 81.335938 52.40625 C 80.507812 52.890625 79.332031 53.652344 77.878906 54.550781 C 76.496094 55.515625 74.90625 56.691406 73.316406 57.9375 C 72.488281 58.558594 71.65625 59.179688 70.828125 59.804688 C 70 60.496094 69.238281 61.117188 68.476562 61.738281 C 66.957031 63.054688 65.4375 64.226562 64.191406 65.265625 C 61.769531 67.410156 60.179688 68.722656 60.597656 68.101562 C 64.882812 61.878906 72.074219 54.34375 82.445312 46.320312 C 87.699219 42.382812 93.574219 38.164062 100.417969 34.222656 C 103.738281 32.148438 107.472656 30.28125 111.203125 28.207031 C 115.074219 26.339844 119.015625 24.335938 123.304688 22.539062 C 128.003906 20.535156 126.277344 21.15625 123.304688 22.191406 C 121.851562 22.746094 120.054688 23.367188 118.601562 23.851562 C 117.148438 24.40625 116.113281 24.820312 115.976562 24.820312 C 116.667969 24.40625 117.425781 23.992188 118.257812 23.4375 C 119.085938 22.953125 120.054688 22.539062 121.023438 22.054688 C 124.132812 20.808594 127.175781 19.496094 130.355469 18.460938 L 133.121094 17.492188 C 134.019531 17.144531 134.988281 16.800781 135.886719 16.59375 L 141.488281 14.933594 C 140.519531 15.210938 139.480469 15.488281 138.511719 15.761719 C 132.566406 17.492188 126.828125 19.566406 121.714844 21.777344 C 122.542969 21.363281 123.441406 20.949219 124.339844 20.535156 C 125.515625 19.980469 126.691406 19.425781 127.9375 18.945312 C 129.179688 18.460938 130.492188 17.90625 131.738281 17.421875 L 133.675781 16.664062 L 134.640625 16.246094 L 135.609375 15.902344 C 138.238281 15.003906 140.796875 14.105469 143.144531 13.273438 C 129.800781 16.664062 116.875 21.570312 104.636719 27.929688 L 102.355469 29.105469 C 101.59375 29.523438 100.832031 29.9375 100.074219 30.351562 L 95.578125 32.910156 C 94.058594 33.738281 92.675781 34.707031 91.222656 35.675781 L 87.492188 38.71875 L 83.273438 41.757812 C 81.890625 42.796875 80.4375 43.765625 79.125 44.871094 C 76.429688 47.011719 73.664062 49.085938 71.105469 51.4375 L 67.234375 54.824219 L 63.5 58.421875 C 60.941406 60.773438 58.660156 63.328125 56.308594 65.820312 C 55.757812 66.441406 55.132812 67.0625 54.582031 67.683594 L 52.921875 69.621094 L 49.535156 73.5625 C 48.429688 74.875 47.390625 76.257812 46.355469 77.640625 L 44.761719 79.714844 C 44.210938 80.40625 43.726562 81.097656 43.242188 81.789062 C 35.152344 92.988281 28.308594 105.019531 22.917969 117.742188 C 26.996094 108.199219 32.042969 99.210938 37.640625 90.777344 C 43.242188 82.410156 49.464844 74.597656 56.101562 67.546875 C 50.085938 74.183594 44.488281 81.304688 39.441406 88.703125 C 34.460938 96.167969 29.96875 104.050781 26.027344 112.210938 L 23.191406 118.363281 C 22.707031 119.398438 22.292969 120.4375 21.878906 121.472656 L 20.636719 124.652344 C 20.21875 125.691406 19.804688 126.726562 19.390625 127.835938 L 18.285156 131.085938 L 17.179688 134.332031 L 16.625 135.921875 L 16.140625 137.582031 C 15.519531 139.796875 14.894531 141.9375 14.273438 144.152344 C 13.722656 146.363281 13.238281 148.574219 12.683594 150.789062 C 12.40625 151.894531 12.132812 153 11.921875 154.105469 L 11.300781 157.496094 L 10.679688 160.882812 C 10.609375 161.433594 10.472656 161.988281 10.402344 162.542969 L 10.195312 164.269531 L 9.296875 171.527344 L 8.742188 178.789062 L 8.605469 180.585938 C 8.605469 181.207031 8.605469 181.832031 8.535156 182.382812 L 8.464844 185.980469 L 8.398438 189.644531 C 8.398438 190.886719 8.464844 192.0625 8.464844 193.308594 L 8.605469 196.972656 C 8.675781 198.214844 8.675781 199.390625 8.742188 200.636719 L 9.296875 207.894531 C 9.367188 208.519531 9.433594 209.070312 9.503906 209.691406 L 9.710938 211.492188 L 10.195312 215.085938 L 10.402344 216.882812 L 10.539062 217.78125 L 10.679688 218.679688 L 11.300781 222.277344 C 14.621094 241.425781 21.257812 259.816406 30.246094 276.894531 C 29.414062 275.511719 28.515625 273.921875 27.617188 272.332031 C 26.71875 270.671875 25.75 269.011719 24.921875 267.144531 C 25.265625 267.90625 25.613281 268.667969 26.027344 269.425781 L 27.203125 271.710938 L 29.554688 276.273438 C 30.3125 277.792969 31.210938 279.246094 32.042969 280.695312 C 32.871094 282.148438 33.703125 283.667969 34.601562 285.121094 L 37.367188 289.40625 C 38.265625 290.859375 39.164062 292.3125 40.199219 293.625 C 42.207031 296.390625 44.074219 299.226562 46.214844 301.851562 C 47.527344 303.441406 48.84375 305.03125 50.226562 306.625 L 54.375 311.1875 C 53.335938 310.148438 50.917969 307.523438 49.1875 305.65625 C 62.53125 321.902344 78.503906 335.867188 96.269531 346.652344 C 113.96875 357.507812 133.464844 364.90625 153.171875 369.054688 C 149.992188 368.433594 148.398438 368.15625 146.949219 367.949219 C 147.984375 368.15625 149.089844 368.433594 150.128906 368.640625 C 151.164062 368.847656 152.273438 369.125 153.378906 369.332031 C 156.28125 369.816406 159.1875 370.367188 162.089844 370.78125 C 164.992188 371.128906 167.898438 371.472656 170.730469 371.820312 C 167.898438 371.542969 164.992188 371.199219 162.089844 370.851562 C 159.1875 370.4375 156.28125 369.882812 153.449219 369.398438 C 152.273438 369.261719 151.097656 368.914062 149.921875 368.707031 C 148.746094 368.433594 147.570312 368.222656 146.394531 367.949219 C 145.703125 367.878906 144.945312 367.742188 144.042969 367.53125 C 143.144531 367.324219 142.039062 366.980469 140.585938 366.496094 C 129.941406 363.660156 120.261719 359.996094 113.484375 356.609375 C 110.167969 355.089844 107.054688 353.289062 103.945312 351.632812 C 102.355469 350.800781 100.832031 349.835938 99.3125 349.003906 C 97.792969 348.105469 96.269531 347.207031 94.75 346.308594 C 93.296875 345.339844 91.847656 344.371094 90.324219 343.472656 C 88.875 342.503906 87.421875 341.605469 86.039062 340.570312 C 83.203125 338.566406 80.371094 336.628906 77.742188 334.484375 C 67.027344 326.121094 57.554688 316.925781 49.742188 307.039062 C 46.144531 302.40625 47.253906 303.441406 49.1875 305.722656 C 48.21875 304.480469 47.183594 303.167969 46.214844 301.921875 L 43.933594 299.15625 L 41.789062 296.253906 C 40.40625 294.316406 38.886719 292.449219 37.574219 290.375 C 36.261719 288.371094 34.878906 286.367188 33.632812 284.292969 C 32.386719 282.21875 31.210938 280.074219 29.96875 278 C 24.78125 268.390625 20.496094 258.367188 17.179688 248.132812 C 16.832031 247.164062 16.488281 246.128906 16.140625 245.160156 C 15.796875 244.191406 15.519531 243.15625 15.242188 242.117188 C 15.585938 243.085938 15.796875 244.125 16.140625 245.160156 C 8.121094 218.679688 6.253906 190.820312 10.125 164.132812 C 10.332031 162.125 10.75 160.191406 11.09375 158.1875 L 11.578125 155.214844 C 11.714844 154.246094 11.921875 153.207031 12.132812 152.238281 C 13.03125 148.300781 13.789062 144.359375 14.964844 140.488281 C 17.039062 132.675781 19.804688 125.070312 22.847656 117.671875 L 22.292969 118.914062 L 21.808594 120.160156 L 20.773438 122.71875 C 20.082031 124.445312 19.390625 126.105469 18.769531 127.902344 C 18.144531 129.632812 17.59375 131.429688 16.96875 133.15625 L 16.070312 135.785156 L 15.3125 138.480469 L 13.789062 143.804688 C 13.304688 145.601562 12.960938 147.402344 12.476562 149.199219 L 11.855469 151.894531 L 11.507812 153.277344 L 11.230469 154.660156 L 10.265625 160.121094 C 9.917969 161.917969 9.640625 163.785156 9.433594 165.652344 L 8.675781 171.183594 C 8.535156 173.050781 8.398438 174.847656 8.191406 176.714844 C 8.050781 178.582031 7.84375 180.378906 7.84375 182.246094 C 7.773438 184.113281 7.707031 185.910156 7.636719 187.777344 C 7.636719 188.675781 7.566406 189.644531 7.566406 190.542969 L 7.636719 193.308594 C 7.636719 195.175781 7.707031 196.972656 7.707031 198.839844 C 7.773438 200.707031 7.914062 202.503906 8.050781 204.300781 C 5.976562 184.871094 7.5 163.164062 12.960938 142.144531 C 9.226562 155.695312 7.222656 169.800781 6.738281 183.972656 C 6.667969 185.355469 6.601562 186.671875 6.601562 187.984375 C 6.601562 188.675781 6.53125 189.296875 6.53125 189.988281 C 6.53125 190.679688 6.53125 191.300781 6.53125 191.992188 C 6.53125 194.621094 6.601562 197.25 6.601562 199.738281 C 6.738281 202.226562 6.875 204.644531 6.945312 206.859375 C 7.015625 209.070312 7.292969 211.144531 7.359375 213.011719 C 5.769531 199.183594 5.769531 187.570312 6.324219 176.644531 C 4.527344 200.429688 7.152344 224.972656 14.6875 248.410156 C 15.035156 249.585938 15.449219 250.691406 15.796875 251.867188 C 16.003906 252.417969 16.140625 253.042969 16.347656 253.59375 C 16.554688 254.148438 16.761719 254.703125 16.96875 255.253906 C 16.761719 254.703125 16.554688 254.148438 16.347656 253.59375 L 15.796875 251.867188 C 15.449219 250.761719 15.035156 249.585938 14.6875 248.480469 C 10.539062 235.6875 7.5 222.136719 6.117188 208.308594 C 4.734375 194.484375 5.011719 180.515625 6.945312 167.242188 L 6.738281 169.59375 C 6.667969 170.355469 6.601562 171.183594 6.53125 171.945312 C 6.460938 173.535156 6.390625 175.125 6.253906 176.714844 C 6.601562 171.320312 7.359375 166 8.121094 160.675781 C 8.605469 158.046875 9.089844 155.421875 9.574219 152.792969 C 10.195312 150.164062 10.816406 147.609375 11.371094 144.980469 C 13.996094 134.609375 17.523438 124.515625 21.808594 114.835938 C 26.097656 105.15625 31.210938 95.894531 37.089844 87.113281 C 42.964844 78.402344 49.601562 70.175781 56.792969 62.5 C 55.757812 63.46875 54.71875 64.503906 53.683594 65.542969 C 52.644531 66.578125 51.609375 67.753906 50.570312 68.929688 C 49.535156 70.105469 48.429688 71.28125 47.390625 72.523438 C 46.355469 73.839844 45.316406 75.082031 44.28125 76.464844 C 40.0625 81.789062 36.050781 87.804688 32.25 94.027344 C 24.78125 106.609375 18.769531 120.4375 14.414062 132.605469 C 21.257812 110.621094 32.664062 89.464844 47.945312 71.140625 C 63.152344 52.75 82.234375 37.195312 103.53125 25.925781 C 124.824219 14.585938 148.332031 7.675781 171.976562 5.394531 C 183.796875 4.21875 195.621094 4.21875 207.304688 5.183594 C 218.921875 6.222656 230.398438 8.367188 241.390625 11.476562 L 235.511719 9.816406 C 233.578125 9.265625 231.570312 8.847656 229.566406 8.367188 C 225.625 7.328125 221.617188 6.707031 217.605469 5.945312 C 209.585938 4.703125 201.496094 3.800781 193.339844 3.664062 C 185.179688 3.320312 177.023438 3.734375 168.863281 4.425781 C 166.859375 4.632812 164.785156 4.910156 162.78125 5.117188 C 161.742188 5.253906 160.707031 5.324219 159.738281 5.53125 L 156.695312 6.015625 C 154.691406 6.359375 152.617188 6.636719 150.613281 7.050781 C 148.609375 7.464844 146.601562 7.949219 144.597656 8.367188 C 146.117188 8.019531 147.707031 7.675781 149.300781 7.328125 C 150.128906 7.121094 150.890625 6.914062 151.71875 6.773438 C 152.546875 6.636719 153.378906 6.429688 154.207031 6.292969 C 155.9375 5.945312 157.59375 5.667969 159.324219 5.324219 C 159.53125 5.253906 159.808594 5.253906 160.015625 5.183594 C 150.40625 6.707031 141.140625 8.847656 132.015625 11.824219 C 129.386719 12.722656 126.761719 13.621094 124.132812 14.519531 C 121.78125 15.488281 119.433594 16.386719 117.082031 17.351562 C 125.378906 13.828125 133.8125 10.855469 142.523438 8.574219 C 156.902344 4.769531 171.699219 2.695312 186.425781 2.210938 C 188.636719 2.074219 190.644531 2.144531 192.511719 2.144531 C 194.308594 2.144531 195.964844 2.144531 197.347656 2.144531 C 200.183594 2.210938 202.328125 2.28125 203.777344 2.28125 C 206.753906 2.28125 207.167969 2.074219 206.0625 1.726562 C 204.953125 1.382812 202.1875 0.96875 198.871094 0.554688 C 197.210938 0.34375 195.34375 0.277344 193.476562 0.207031 C 191.609375 0.136719 189.675781 0 187.878906 0.0703125 C 183.316406 0.207031 178.75 0.207031 174.1875 0.691406 C 173.082031 0.761719 171.90625 0.898438 170.800781 0.96875 C 170.246094 1.035156 169.695312 1.035156 169.140625 1.105469 L 167.480469 1.3125 C 165.269531 1.589844 162.988281 1.867188 160.777344 2.144531 C 158.5625 2.488281 156.351562 2.902344 154.136719 3.320312 C 153.03125 3.527344 151.925781 3.734375 150.820312 3.941406 C 149.714844 4.148438 148.675781 4.425781 147.570312 4.703125 C 145.425781 5.183594 143.214844 5.667969 141.070312 6.222656 C 138.929688 6.84375 136.785156 7.398438 134.710938 8.019531 C 126.277344 10.578125 117.980469 13.550781 110.097656 17.285156 L 107.125 18.597656 C 106.15625 19.082031 105.191406 19.566406 104.222656 20.050781 C 102.285156 21.019531 100.351562 21.984375 98.414062 23.023438 C 94.679688 25.234375 90.878906 27.238281 87.28125 29.660156 C 58.246094 48.1875 34.738281 74.460938 19.945312 105.503906 C 19.527344 106.402344 19.042969 107.300781 18.628906 108.269531 L 17.453125 111.035156 C 16.695312 112.902344 15.863281 114.769531 15.105469 116.632812 C 14.414062 118.5 13.722656 120.4375 13.03125 122.304688 C 12.683594 123.273438 12.339844 124.171875 11.992188 125.136719 L 11.09375 128.042969 L 9.226562 133.847656 L 7.914062 139.65625 L 7.152344 142.5625 L 6.53125 145.535156 L 5.21875 151.480469 C 2.175781 167.382812 1.136719 183.699219 2.035156 199.875 C 2.382812 204.4375 2.589844 209.484375 3.28125 214.601562 C 3.417969 215.847656 3.558594 217.160156 3.765625 218.472656 C 3.972656 219.785156 4.179688 221.03125 4.386719 222.277344 C 4.59375 223.519531 4.800781 224.835938 5.078125 226.078125 C 5.21875 226.699219 5.285156 227.324219 5.425781 227.945312 C 5.5625 228.566406 5.703125 229.191406 5.839844 229.8125 C 6.390625 232.230469 6.945312 234.652344 7.429688 236.933594 C 8.050781 239.214844 8.675781 241.359375 9.226562 243.363281 C 9.503906 244.398438 9.78125 245.367188 10.058594 246.265625 C 10.402344 247.164062 10.679688 248.0625 10.957031 248.894531 C 11.507812 250.554688 12.0625 252.003906 12.476562 253.320312 C 17.523438 266.523438 24.230469 279.246094 32.320312 291.273438 C 36.328125 297.359375 40.824219 303.027344 45.523438 308.699219 C 46.699219 310.082031 48.011719 311.464844 49.1875 312.84375 C 50.433594 314.226562 51.609375 315.609375 52.992188 316.925781 C 55.617188 319.550781 58.175781 322.25 60.941406 324.738281 C 62.324219 325.980469 63.636719 327.296875 65.089844 328.539062 C 66.542969 329.714844 67.992188 330.960938 69.375 332.136719 C 70.066406 332.757812 70.828125 333.378906 71.519531 333.933594 L 73.800781 335.660156 C 75.324219 336.835938 76.773438 337.941406 78.296875 339.117188 C 84.515625 343.472656 90.808594 347.761719 97.652344 351.355469 C 100.972656 353.289062 104.5 354.949219 107.953125 356.679688 C 108.785156 357.09375 109.683594 357.507812 110.582031 357.921875 L 113.277344 359.097656 L 115.976562 360.273438 L 117.289062 360.894531 L 118.671875 361.449219 C 120.46875 362.140625 122.335938 362.832031 124.132812 363.523438 L 125.515625 364.078125 C 126 364.214844 126.414062 364.351562 126.898438 364.558594 L 129.734375 365.460938 L 132.566406 366.359375 C 133.535156 366.703125 134.433594 366.980469 135.402344 367.257812 C 137.339844 367.808594 139.203125 368.292969 141.140625 368.847656 C 154.828125 372.582031 169.28125 374.585938 183.867188 374.863281 C 185.664062 374.863281 187.53125 375 189.328125 374.929688 C 191.128906 374.863281 192.992188 374.792969 194.792969 374.792969 L 197.558594 374.722656 C 198.457031 374.722656 199.355469 374.585938 200.320312 374.515625 C 202.121094 374.378906 203.988281 374.238281 205.851562 374.03125 L 207.234375 373.894531 C 207.71875 373.824219 208.132812 373.753906 208.617188 373.6875 L 211.382812 373.339844 C 213.183594 373.0625 215.046875 372.855469 216.847656 372.582031 L 222.308594 371.542969 L 225.003906 371.058594 C 225.902344 370.921875 226.800781 370.644531 227.699219 370.4375 L 233.09375 369.125 L 234.476562 368.777344 L 235.789062 368.363281 L 238.484375 367.601562 C 240.285156 367.050781 242.082031 366.632812 243.808594 366.011719 L 249.0625 364.214844 L 251.691406 363.316406 L 254.25 362.277344 L 259.367188 360.203125 C 261.09375 359.445312 262.753906 358.683594 264.414062 357.921875 C 266.070312 357.164062 267.800781 356.402344 269.390625 355.503906 C 272.640625 353.773438 275.957031 352.117188 279.136719 350.25 C 280.730469 349.28125 282.320312 348.453125 283.910156 347.414062 C 285.429688 346.445312 287.019531 345.410156 288.542969 344.441406 L 290.824219 342.921875 L 293.035156 341.332031 C 294.554688 340.292969 296.007812 339.1875 297.460938 338.148438 C 298.910156 337.042969 300.363281 335.867188 301.746094 334.761719 C 303.128906 333.585938 304.648438 332.550781 305.964844 331.304688 C 317.027344 321.832031 326.914062 311.324219 335.417969 299.984375 C 343.851562 288.648438 350.832031 276.546875 356.433594 264.242188 C 362.035156 251.9375 366.183594 239.285156 368.949219 226.839844 C 371.78125 214.394531 373.304688 202.089844 373.855469 190.265625 C 373.789062 192.476562 373.578125 195.105469 373.371094 198.007812 Z M 9.089844 138.273438 C 9.640625 135.992188 10.195312 133.847656 10.886719 131.777344 C 11.578125 129.703125 12.269531 127.765625 12.890625 125.898438 C 13.582031 124.03125 14.414062 122.234375 15.105469 120.507812 C 18.078125 113.523438 21.394531 107.648438 24.714844 101.21875 C 29.347656 92.503906 34.601562 84.070312 40.546875 76.1875 C 42.066406 74.253906 43.589844 72.316406 45.039062 70.3125 C 46.628906 68.445312 48.21875 66.578125 49.8125 64.710938 C 50.570312 63.746094 51.402344 62.84375 52.300781 62.015625 L 54.789062 59.320312 C 55.617188 58.421875 56.449219 57.523438 57.347656 56.691406 C 58.246094 55.863281 59.074219 55.03125 59.972656 54.132812 C 61.703125 52.476562 63.429688 50.746094 65.296875 49.15625 C 67.09375 47.566406 68.890625 45.976562 70.757812 44.386719 C 72.625 42.863281 74.492188 41.414062 76.359375 39.890625 C 77.257812 39.132812 78.296875 38.441406 79.195312 37.75 C 80.160156 37.058594 81.128906 36.367188 82.097656 35.675781 C 83.066406 34.984375 83.964844 34.292969 85 33.601562 C 85.96875 32.976562 86.9375 32.285156 87.972656 31.664062 C 89.980469 30.421875 91.847656 29.039062 93.851562 27.929688 C 95.855469 26.757812 97.859375 25.582031 99.796875 24.472656 C 101.800781 23.4375 103.875 22.332031 105.882812 21.292969 C 95.371094 26.617188 85.417969 32.910156 76.152344 40.097656 C 82.375 35.328125 88.597656 31.25 95.027344 27.449219 C 96.132812 26.824219 97.238281 26.203125 98.277344 25.582031 L 99.933594 24.613281 L 101.59375 23.78125 C 103.875 22.675781 106.089844 21.5 108.4375 20.328125 C 110.789062 19.289062 113.210938 18.253906 115.628906 17.144531 C 118.050781 16.109375 120.605469 15.210938 123.164062 14.242188 C 121.644531 14.933594 119.707031 15.761719 117.566406 16.660156 C 116.457031 17.078125 115.421875 17.628906 114.316406 18.113281 C 113.210938 18.597656 112.101562 19.152344 110.996094 19.636719 C 109.890625 20.1875 108.855469 20.601562 107.816406 21.15625 C 106.847656 21.710938 105.882812 22.191406 105.050781 22.675781 C 103.390625 23.574219 102.007812 24.40625 101.316406 24.890625 C 103.667969 23.644531 106.019531 22.402344 108.4375 21.292969 C 106.019531 22.539062 103.597656 23.78125 101.109375 25.097656 C 101.179688 25.027344 101.25 25.027344 101.316406 24.957031 C 78.226562 37.542969 57.761719 55.03125 41.652344 75.773438 C 33.632812 86.144531 26.582031 97.277344 20.910156 108.960938 C 15.242188 120.714844 10.75 132.949219 7.566406 145.464844 C 7.914062 142.90625 8.535156 140.554688 9.089844 138.273438 Z M 115.765625 18.042969 C 113.695312 19.011719 111.550781 19.980469 109.40625 20.949219 C 111.480469 19.980469 113.625 19.011719 115.765625 18.042969 Z M 75.875 40.445312 C 74.976562 41.136719 74.078125 41.828125 73.179688 42.589844 C 74.078125 41.828125 74.976562 41.136719 75.875 40.445312 Z M 95.234375 44.871094 C 97.515625 43.554688 99.867188 42.035156 102.492188 40.722656 L 100.003906 42.171875 L 97.585938 43.695312 C 95.996094 44.730469 94.402344 45.769531 92.8125 46.804688 C 89.773438 49.019531 86.589844 51.160156 83.617188 53.582031 C 77.605469 58.214844 72.003906 63.398438 66.609375 68.859375 L 62.671875 73.007812 C 61.980469 73.699219 61.425781 74.460938 60.804688 75.152344 L 58.9375 77.296875 L 57.070312 79.4375 C 56.449219 80.128906 55.894531 80.960938 55.273438 81.71875 C 54.097656 83.242188 52.921875 84.761719 51.746094 86.28125 C 50.640625 87.875 49.535156 89.394531 48.429688 90.984375 C 47.875 91.746094 47.320312 92.574219 46.769531 93.335938 L 45.246094 95.753906 C 44.210938 97.414062 43.171875 99.003906 42.136719 100.664062 C 41.167969 102.324219 40.199219 104.050781 39.234375 105.710938 L 39.164062 105.710938 C 45.109375 94.785156 53.890625 82.34375 63.429688 72.109375 C 64.605469 70.867188 65.851562 69.550781 66.957031 68.375 C 67.511719 67.753906 68.132812 67.132812 68.753906 66.578125 C 69.375 66.027344 69.929688 65.402344 70.550781 64.851562 C 71.726562 63.746094 72.832031 62.570312 74.007812 61.464844 C 75.183594 60.425781 76.289062 59.390625 77.394531 58.421875 C 77.949219 57.9375 78.503906 57.453125 78.988281 56.96875 C 79.261719 56.761719 79.539062 56.484375 79.746094 56.277344 C 80.023438 56.070312 80.300781 55.863281 80.578125 55.585938 C 81.613281 54.6875 82.652344 53.859375 83.617188 53.027344 C 84.585938 52.199219 85.484375 51.4375 86.316406 50.675781 C 87.214844 49.984375 87.972656 49.292969 88.734375 48.671875 C 90.808594 47.566406 92.882812 46.183594 95.234375 44.871094 Z M 295.523438 45.628906 C 288.402344 40.238281 280.867188 35.328125 273.054688 30.972656 L 267.109375 27.863281 C 266.140625 27.308594 265.105469 26.894531 264.066406 26.410156 L 261.023438 24.957031 C 259.988281 24.472656 259.019531 23.992188 257.984375 23.574219 L 254.871094 22.332031 L 251.761719 21.085938 L 250.171875 20.464844 L 248.578125 19.910156 C 246.4375 19.152344 244.292969 18.460938 242.21875 17.699219 C 240.074219 17.078125 237.863281 16.386719 235.71875 15.761719 C 233.578125 15.070312 231.363281 14.589844 229.152344 14.035156 C 226.941406 13.480469 224.726562 12.929688 222.515625 12.582031 C 223.484375 12.789062 224.519531 12.929688 225.488281 13.136719 L 228.390625 13.828125 C 230.328125 14.3125 232.261719 14.65625 234.199219 15.210938 C 238.003906 16.316406 241.941406 17.285156 245.675781 18.667969 C 253.28125 21.085938 260.679688 24.265625 267.871094 27.722656 C 277.066406 32.355469 285.707031 37.816406 293.726562 43.832031 C 301.746094 49.847656 309.007812 56.484375 315.574219 63.46875 C 309.28125 57.039062 302.574219 51.09375 295.523438 45.628906 Z M 141.695312 23.507812 C 143.214844 23.09375 144.734375 22.675781 146.257812 22.332031 C 147.777344 21.984375 149.367188 21.710938 150.957031 21.363281 C 154.070312 20.671875 157.25 20.257812 160.359375 19.773438 C 157.179688 20.328125 154.070312 20.808594 150.957031 21.570312 C 149.4375 21.917969 147.847656 22.261719 146.324219 22.609375 C 144.804688 23.023438 143.285156 23.4375 141.761719 23.851562 C 142.871094 23.507812 141.832031 23.574219 141.695312 23.507812 Z M 203.15625 17.976562 C 203.917969 18.113281 204.746094 18.320312 205.714844 18.460938 C 206.683594 18.597656 207.71875 18.875 208.824219 19.011719 L 207.097656 18.734375 L 206.199219 18.597656 L 205.300781 18.527344 C 204.125 18.460938 202.949219 18.320312 201.84375 18.253906 C 200.667969 18.183594 199.492188 18.042969 198.386719 17.976562 C 197.832031 17.90625 197.210938 17.90625 196.65625 17.90625 L 194.929688 17.835938 C 197.695312 17.699219 200.390625 17.90625 203.15625 17.976562 Z M 288.609375 50.402344 C 289.234375 50.816406 289.855469 51.300781 290.476562 51.714844 C 291.097656 52.128906 291.652344 52.683594 292.207031 53.097656 C 290.753906 51.921875 289.234375 50.886719 287.710938 49.777344 C 286.949219 49.226562 286.191406 48.671875 285.429688 48.1875 C 284.667969 47.636719 283.910156 47.082031 283.078125 46.597656 L 278.308594 43.554688 L 277.132812 42.796875 L 275.890625 42.105469 C 275.058594 41.621094 274.300781 41.207031 273.46875 40.722656 C 274.992188 41.480469 276.234375 42.035156 276.925781 42.449219 C 278.308594 43.28125 279.621094 44.179688 280.9375 45.078125 C 281.628906 45.492188 282.25 45.90625 282.941406 46.390625 C 283.632812 46.804688 284.253906 47.21875 284.878906 47.703125 C 286.121094 48.601562 287.367188 49.503906 288.609375 50.402344 Z M 288.609375 50.402344 " fill-opacity="1" fill-rule="nonzero"/></g><g fill="#545454" fill-opacity="1"><g transform="translate(120.325192, 256.499983)"><g><path d="M 100.1875 -75.515625 L 100.1875 -127.046875 L 115.046875 -127.046875 L 115.046875 0 L 100.1875 0 L 100.1875 -62.828125 L 34.15625 -62.828125 L 34.15625 0 L 19.203125 0 L 19.203125 -127.046875 L 34.15625 -127.046875 L 34.15625 -75.515625 Z M 100.1875 -75.515625 "/></g></g></g></svg>